<?xml version="1.0" standalone="no"?><!DOCTYPE svg PUBLIC "-//W3C//DTD SVG 1.1//EN" "http://www.w3.org/Graphics/SVG/1.1/DTD/svg11.dtd"><svg t="1646878637987" class="icon" viewBox="0 0 1024 1024" version="1.1" xmlns="http://www.w3.org/2000/svg" p-id="2939" xmlns:xlink="http://www.w3.org/1999/xlink" width="200" height="200"><defs><style type="text/css"></style></defs><path d="M419.352381 828.952381L292.571429 716.8l-92.647619 73.142857V121.904762h585.142857v302.323809h97.523809V24.380952h-780.190476v975.238096L292.571429 843.580952l136.533333 117.028572 136.533333-141.409524-73.142857-68.266667z" p-id="2940"></path><path d="M297.447619 229.180952h390.095238v97.52381h-390.095238zM297.447619 443.733333h292.571429v97.52381h-292.571429zM921.6 711.92381V633.904762h-82.895238l68.266667-112.152381-68.266667-39.009524-68.266667 117.028572-68.266666-117.028572-68.266667 39.009524 68.266667 112.152381h-82.895239v78.019048H731.428571v43.885714h-112.152381v78.019047H731.428571v112.152381h78.019048v-112.152381h112.152381v-78.019047h-112.152381v-43.885714z" p-id="2941"></path></svg>